<?xml version="1.0" standalone="no"?>
<!DOCTYPE svg PUBLIC "-//W3C//DTD SVG 20010904//EN"
 "http://www.w3.org/TR/2001/REC-SVG-20010904/DTD/svg10.dtd">
<svg version="1.0" xmlns="http://www.w3.org/2000/svg"
 width="24.000000pt" height="24.000000pt" viewBox="0 0 24.000000 24.000000"
 preserveAspectRatio="xMidYMid meet">
<metadata>
Created by potrace 1.16, written by Peter Selinger 2001-2019
</metadata>
<g transform="translate(0.000000,24.000000) scale(0.004979,-0.004687)"
fill="#000000" stroke="none">
<path d="M1182 4691 c-645 -231 -1176 -421 -1179 -425 -5 -4 337 -3016 353
-3111 5 -29 58 -60 1010 -589 l1004 -558 772 428 c425 235 883 488 1018 562
135 74 247 137 249 139 9 6 399 3138 393 3144 -10 10 -2418 829 -2434 829 -7
-1 -541 -189 -1186 -419z m1979 -1848 c413 -879 754 -1604 757 -1612 4 -12
-35 -13 -258 -9 -197 4 -264 9 -270 18 -5 7 -79 177 -165 377 l-158 363 -660
-2 -661 -3 -146 -365 -146 -365 -45 -7 c-24 -3 -149 -7 -278 -7 -183 -1 -232
2 -228 11 2 7 325 726 717 1598 392 872 721 1605 732 1630 l20 45 19 -37 c11
-21 357 -757 770 -1635z"/>
<path d="M2159 2934 l-216 -514 463 0 c255 0 464 2 464 4 0 7 -481 1011 -488
1018 -4 4 -104 -225 -223 -508z"/>
</g>
</svg>
